<?xml version="1.0" encoding="iso-8859-1"?>
<!-- Generator: Adobe Illustrator 19.0.0, SVG Export Plug-In . SVG Version: 6.00 Build 0)  -->
<svg version="1.1" id="Capa_1" xmlns="http://www.w3.org/2000/svg" xmlns:xlink="http://www.w3.org/1999/xlink" x="0px" y="0px"
	 viewBox="0 0 497.616 497.616" style="enable-background:new 0 0 497.616 497.616;" xml:space="preserve">
<g>
	<g>
		<g>
			<path d="M353.616,0.808c-79.4,0-144,64.6-144,144c0,59.544,36.336,110.776,88,132.664v43.336h112v-43.336
				c51.664-21.888,88-73.12,88-132.664C497.616,65.408,433.016,0.808,353.616,0.808z M393.616,304.808h-80V283.04
				c12.72,3.688,26.112,5.768,40,5.768s27.28-2.08,40-5.768V304.808z M353.616,272.808c-70.576,0-128-57.424-128-128
				s57.424-128,128-128s128,57.424,128,128S424.192,272.808,353.616,272.808z"/>
			<path d="M353.616,48.808c22.84,0,45,8.216,62.408,23.152l10.416-12.144c-20.304-17.416-46.16-27.008-72.824-27.008
				c-61.76,0-112,50.24-112,112c0,26.656,9.592,52.512,27,72.824l12.152-10.424c-14.936-17.4-23.152-39.568-23.152-62.4
				C257.616,91.872,300.68,48.808,353.616,48.808z"/>
			<path d="M438.616,71.984l-12.152,10.424c14.936,17.4,23.152,39.568,23.152,62.4c0,52.936-43.064,96-96,96
				c-22.84,0-45-8.216-62.408-23.152L280.792,229.8c20.304,17.416,46.16,27.008,72.824,27.008c61.76,0,112-50.24,112-112
				C465.616,118.152,456.024,92.296,438.616,71.984z"/>
			<path d="M377.616,208.808v-40h40v-48h-40v-40h-48v40h-40v48h40v40H377.616z M305.616,152.808v-16h40v-40h16v40h40v16h-40v40h-16
				v-40H305.616z"/>
			<path d="M377.616,456.808c0,13.232-10.768,24-24,24s-24-10.768-24-24v-120h-16v120c0,22.056,17.944,40,40,40
				c22.056,0,40-17.944,40-40v-120h-16V456.808z"/>
			<path d="M288.944,290.44l-14.656-6.408c-14.016,32.056-45.688,52.776-80.672,52.776c-48.52,0-88-39.48-88-88s39.48-88,88-88v-16
				c-122.864,0-187.944,95.504-190.656,99.56L0,248.808l2.96,4.44c2.712,4.056,67.792,99.56,190.656,99.56
				c31.648,0,62.344-6.496,91.24-19.296l-6.488-14.624c-4.32,1.912-8.704,3.624-13.112,5.232
				C275.128,314.736,283.28,303.4,288.944,290.44z M19.536,248.8c10.384-13.488,45.408-54.168,102.384-75.136
				c-19.856,18.952-32.304,45.592-32.304,75.144c0,29.504,12.408,56.12,32.216,75.072C65.008,302.88,29.936,262.264,19.536,248.8z"
				/>
			<path d="M153.616,248.808c0,22.056,17.944,40,40,40c22.056,0,40-17.944,40-40c0-22.056-17.944-40-40-40
				C171.56,208.808,153.616,226.752,153.616,248.808z M217.616,248.808c0,13.232-10.768,24-24,24s-24-10.768-24-24
				c0-13.232,10.768-24,24-24S217.616,235.576,217.616,248.808z"/>
		</g>
	</g>
</g>
<g>
</g>
<g>
</g>
<g>
</g>
<g>
</g>
<g>
</g>
<g>
</g>
<g>
</g>
<g>
</g>
<g>
</g>
<g>
</g>
<g>
</g>
<g>
</g>
<g>
</g>
<g>
</g>
<g>
</g>
</svg>
