<?xml version="1.0" encoding="iso-8859-1"?>
<!-- Generator: Adobe Illustrator 19.0.0, SVG Export Plug-In . SVG Version: 6.00 Build 0)  -->
<svg version="1.1" id="Capa_1" xmlns="http://www.w3.org/2000/svg" xmlns:xlink="http://www.w3.org/1999/xlink" x="0px" y="0px"
	 viewBox="0 0 496 496" style="enable-background:new 0 0 496 496;" xml:space="preserve">
<g>
	<g>
		<g>
			<path d="M88,464c30.872,0,56-25.128,56-56s-25.128-56-56-56s-56,25.128-56,56S57.128,464,88,464z M96,447.192v-16.664
				c6.776-2.416,12.112-7.752,14.528-14.528h16.664C124,431.648,111.648,444,96,447.192z M96,368.808
				C111.648,372,124,384.352,127.192,400h-16.664c-2.416-6.776-7.752-12.112-14.528-14.528V368.808z M88,400c4.416,0,8,3.584,8,8
				c0,4.416-3.584,8-8,8s-8-3.584-8-8C80,403.584,83.584,400,88,400z M80,368.808v16.664c-6.776,2.416-12.112,7.752-14.528,14.528
				H48.808C52,384.352,64.352,372,80,368.808z M65.472,416c2.416,6.776,7.752,12.112,14.528,14.528v16.664
				C64.352,444,52,431.648,48.808,416H65.472z"/>
			<path d="M456.888,234.424C482.112,209.2,496,175.672,496,140.008v-6.488C496,59.896,436.104,0,362.48,0
				c-51.656,0-97.872,29.6-119.984,75.136C237.448,68.416,229.4,64,220.12,64c-3.856,0-7.6,0.8-11.128,2.36l-49.008,21.776
				c0-0.048,0.016-0.088,0.016-0.136c0-17.648-14.352-32-32-32S96,70.352,96,88c0,14.408,9.632,26.48,22.744,30.472l10.4,25.528H56
				c-13.232,0-24,10.768-24,24H0v112h32c0,10.416,6.712,19.216,16,22.528V320H24c-13.232,0-24,10.768-24,24v128
				c0,13.232,10.768,24,24,24h128c13.232,0,24-10.768,24-24v-32h48v-16h-48v-80c0-13.232-10.768-24-24-24h-24v-16h16v-96h-16v80H56
				c-4.416,0-8-3.584-8-8V168c0-4.416,3.584-8,8-8h79.664l66.76,163.864C200.88,327.608,200,331.704,200,336
				c0,8.048,3.08,15.32,8,20.944V408h16v-41.136c2.576,0.672,5.224,1.136,8,1.136s5.424-0.464,8-1.136V480h-48v16h64V356.944
				c4.92-5.624,8-12.896,8-20.944c0-0.92-0.192-1.784-0.272-2.68l56.008-24.896C329.616,304.04,336,294.208,336,283.4
				c0-1.16-0.2-2.272-0.344-3.4H352v22.304l-32,72V496h152v-60.104c0-50.8-8.072-100.984-24-149.184v-43.4L456.888,234.424z M32,264
				H16v-80h16V264z M64,304h48v16H64V304z M152,336c4.416,0,8,3.584,8,8v128c0,4.416-3.584,8-8,8H24c-4.416,0-8-3.584-8-8V344
				c0-4.416,3.584-8,8-8H152z M243.896,152.584c1.64,6.552-1.44,13.24-7.48,16.256l-5.792,3.504l1.824,6.384
				c9.448,33.048,29.008,62.248,55.696,83.56L234.784,286l-58.96-144.72l55.912-24.848c0.968-0.432,1.864-0.952,2.76-1.48
				L243.896,152.584z M215.496,80.984C216.96,80.328,218.512,80,220.6,80c6.288,0,11.4,5.112,11.4,11.4
				c0,4.496-2.656,8.584-6.768,10.408l-55.448,24.648l-8.68-21.296L215.496,80.984z M128,104c-8.824,0-16-7.176-16-16
				s7.176-16,16-16c8.824,0,16,7.176,16,16c0,3.048-0.904,5.88-2.392,8.304l-0.856,0.384L141,97.256
				C138.096,101.32,133.368,104,128,104z M136.16,118.816c4.064-1.08,7.792-2.912,11.056-5.384l77.952,191.344
				c-4.104,0.896-7.92,2.568-11.264,4.872L136.16,118.816z M232,352c-8.824,0-16-7.176-16-16c0-8.824,7.176-16,16-16
				c8.824,0,16,7.176,16,16C248,344.824,240.824,352,232,352z M313.232,293.808l-54.704,24.312
				c-3.736-5.528-9.208-9.728-15.576-12.064l-2.128-5.224l62.664-27.848c1.472-0.656,3.024-0.984,5.112-0.984
				c6.288,0,11.4,5.112,11.4,11.4C320,287.896,317.344,291.984,313.232,293.808z M424,480h-48v-56h32v-16h-32v-40
				c0-13.232,10.768-24,24-24s24,10.768,24,24V480z M432.416,290.528C448.064,337.488,456,386.392,456,435.896V480h-16V368
				c0-22.056-17.944-40-40-40c-22.056,0-40,17.944-40,40v112h-24V377.696l32-72V280h16v-16h-56v0.144
				c-5.032-5.016-12.032-8.144-19.88-8.144c-0.448,0-0.88,0.12-1.336,0.136c-26.936-18.496-47.112-45.36-57.384-76.768
				c8.856-7.296,12.92-19.08,10.024-30.664L248.32,104.32l2.656-7.96C267,48.296,311.816,16,362.48,16
				C427.28,16,480,68.72,480,133.52v6.488c0,31.392-12.224,60.904-34.424,83.104L432,236.688v52.608L432.416,290.528z"/>
		</g>
	</g>
</g>
<g>
</g>
<g>
</g>
<g>
</g>
<g>
</g>
<g>
</g>
<g>
</g>
<g>
</g>
<g>
</g>
<g>
</g>
<g>
</g>
<g>
</g>
<g>
</g>
<g>
</g>
<g>
</g>
<g>
</g>
</svg>
